<svg version="1.2" xmlns="http://www.w3.org/2000/svg" viewBox="0 0 1300 1300" width="1300" height="1300">
	<title>Vortex V1 (Isotipo)</title>
	<defs>
		<linearGradient id="g1" x2="1" gradientUnits="userSpaceOnUse" gradientTransform="matrix(682.156,0,0,456.043,329.862,341.937)">
			<stop offset="0" stop-color="#820000"/>
			<stop offset=".648" stop-color="#e11b22"/>
			<stop offset="1" stop-color="#ffd400"/>
		</linearGradient>
		<linearGradient id="g2" x2="1" gradientUnits="userSpaceOnUse" gradientTransform="matrix(262.614,0,0,190.455,500.377,395.757)">
			<stop offset="0" stop-color="#f04e23"/>
			<stop offset=".648" stop-color="#fcaf17"/>
			<stop offset="1" stop-color="#ffd400"/>
		</linearGradient>
		<linearGradient id="g3" x2="1" gradientUnits="userSpaceOnUse" gradientTransform="matrix(589.462,0,0,221.5,320.925,590.52)">
			<stop offset="0" stop-color="#bb141a"/>
			<stop offset=".648" stop-color="#e11b22"/>
			<stop offset="1" stop-color="#ffd400"/>
		</linearGradient>
		<linearGradient id="g4" x2="1" gradientUnits="userSpaceOnUse" gradientTransform="matrix(604.736,0,0,338.061,334.586,403.746)">
			<stop offset="0" stop-color="#9e0b0f"/>
			<stop offset=".648" stop-color="#e11b22"/>
			<stop offset="1" stop-color="#fcaf17"/>
		</linearGradient>
		<linearGradient id="g5" x2="1" gradientUnits="userSpaceOnUse" gradientTransform="matrix(635.285,0,0,339.988,381.786,336.937)">
			<stop offset="0" stop-color="#820000"/>
			<stop offset=".648" stop-color="#e11b22"/>
			<stop offset="1" stop-color="#ffd400"/>
		</linearGradient>
	</defs>
	<style>
		.s0 { fill: url(#g1) } 
		.s1 { fill: url(#g2) } 
		.s2 { fill: url(#g3) } 
		.s3 { fill: #f04e23 } 
		.s4 { fill: url(#g4) } 
		.s5 { fill: url(#g5) } 
		.s6 { fill: #ffffff } 
	</style>
	<g id="Layer 1">
		<g id="&lt;Group&gt;">
			<g id="&lt;Group&gt;">
				<path id="&lt;Path&gt;" class="s0" d="m655.3 798c39-23.8 64.9-49.4 66.3-50.8l-5.5-8.1c-64.2 26.4-115 38.2-164.7 38.2-41.5 0-82.6-8.3-129.6-26.3-51.5-19.8-74.9-48.5-85.4-69.2-2.9-5.7-5-11.1-6.5-16 20.4 25.1 49.9 40.3 51.4 41.1l4.8-8.8c0 0-1.8-1-4.6-3.2-8-6-22.9-19.7-32.6-43.3-12.2-29.5-12.5-64.7-0.7-104.5 17-57.5 55.4-92.1 84.6-111q6.2-4 12-7.3c-21.5 17.7-38.3 37.6-50.2 59.6-14.8 27.5-16.7 49.3-17 55.3 0 1 0 1.5 0 1.5l9.7 1.6c11.8-34.6 40.9-69 84.2-99.3 51.8-36.4 121.7-66 207.9-88 45.8-11.6 89.8-17.6 130.8-17.6 46.5 0 89.2 7.9 123.5 22.8 31.5 13.7 55.3 32.9 69 55.5 12.8 21.3 10.4 45.9 4.6 65.5 0-12.1-1.7-26.2-6.9-41.7-12.8-38.5-71.4-77.4-173.4-77.4-48.4 0-101.1 8.9-156.4 26.4-81.4 25.7-141.9 58.3-179.8 96.8-37.1 37.6-40.5 68.8-40.2 80.4 0.7 30 45.1 48.6 115.7 48.6 39 0 84.1-5.4 134.1-16.2 82.8-17.8 144.1-46.7 181-67.8 24.6-14 41.7-26.4 51.5-34.1-2.6 16.9-9.5 49.8-27.1 87.7-19.7 42.6-47.3 80.2-82.1 111.6-53.7 48.4-106.8 75-141.9 88.7-9.7 3.8-18.6 6.8-26.5 9.3z"/>
				<path id="&lt;Path&gt;" class="s1" d="m763 395.8c0 0-171.5 35.1-243.7 119.7-72.2 84.6 81.7 75 136 62.6 0 0-131.2 5.2-120.2-38.5 9.1-36.1 119.9-107.4 227.9-143.8z"/>
				<g id="&lt;Group&gt;">
					<path id="&lt;Path&gt;" class="s2" d="m383.6 702.5c0 0-46.6-23.7-62.7-60.4 0 0-3.6 74.2 99.2 113.5 102.7 39.4 184 35 297.9-11.9 0 0-42 42-99.6 68.3 0 0 103.4-13.3 208.6-108.3 40.8-36.8 66.8-77.3 83.4-113.2-212.4 197.1-448.1 162.7-526.8 112z"/>
					<path id="&lt;Path&gt;" class="s3" d="m383.6 702.5c-1.8-1.2-3.5-2.4-5.2-3.6 3.2 2.4 5.2 3.6 5.2 3.6z"/>
					<path id="&lt;Path&gt;" class="s4" d="m406.6 618c-21.2-24.8-27.3-49.9-24-74.1 0.4-10.3 7.1-84.7 108.9-140.2 0 0-114.4 27.8-148.1 142-28.2 95.6 18.9 140.9 35 153.2 1.7 1.2 3.4 2.4 5.2 3.6 78.7 50.7 314.4 85.1 526.8-112 26.2-56.7 28.9-101.7 28.9-101.7-97.4 193.4-438 239.9-532.7 129.2z"/>
					<path id="&lt;Path&gt;" class="s5" d="m1007 417.6c-38.5-63.8-157.9-106.5-328.8-62.9-187 47.7-273.4 125.3-295.6 190.5 0 0 0-0.5 0-1.3-3.3 24.2 2.8 49.3 24 74.1 94.7 110.7 435.3 64.2 532.7-129.2 0 0-80.9 74.7-240 108.9-159 34.2-242.9 8.7-243.7-27.6-0.8-33.5 31.9-114 216.6-172.4 184.6-58.4 304.7-8.4 323.5 47.9 14.8 44.6 0 78.1 0 78.1 0 0 39.4-59.4 11.3-106.1z"/>
				</g>
			</g>
			<g id="&lt;Group&gt;">
				<g id="&lt;Group&gt;">
				</g>
				<g id="&lt;Group&gt;">
				</g>
				<path id="VORTEX" class="s6" aria-label="VORTEX"  d="m377.9 856h21.3l-49.8 101.3q-1.1 2.3-3.5 3.8-2.3 1.4-5 1.4-2.7 0-5.1-1.4-2.3-1.5-3.5-3.8l-49.7-101.3h21.3l37 75.6zm140 42.5v20.1q0 9.6-3.3 17.6-3.3 8.1-9.2 13.9-5.8 5.9-13.9 9.2-8 3.2-17.4 3.2h-25.8q-9.4 0-17.5-3.2-8-3.3-13.9-9.2-5.9-5.8-9.2-13.9-3.3-8-3.3-17.6v-20.1q0-9.5 3.3-17.6 3.3-8.1 9.2-13.9 5.9-5.8 13.9-9.1 8.1-3.3 17.5-3.3h25.8q9.4 0 17.4 3.3 8.1 3.3 13.9 9.1 5.9 5.8 9.2 13.9 3.3 8.1 3.3 17.6zm-19 20.1v-20.1q0-5.6-1.9-10.2-1.7-4.6-5-7.8-3.2-3.3-7.9-5.1-4.5-1.8-10-1.8h-25.8q-5.5 0-10.2 1.8-4.5 1.8-7.8 5.1-3.3 3.2-5.1 7.8-1.8 4.6-1.8 10.2v20.1q0 5.6 1.8 10.2 1.8 4.6 5.1 7.9 3.3 3.2 7.8 5 4.7 1.8 10.2 1.8h25.7q5.5 0 10.1-1.8 4.6-1.8 7.9-5 3.3-3.3 5-7.9 1.9-4.6 1.9-10.2zm142.8-39.4v12.1q0 6.6-1.6 11.7-1.6 5.1-4.4 9.1-2.7 3.8-6.3 6.6-3.6 2.8-7.6 4.6-3.9 1.8-7.9 2.6-3.9 0.8-7.4 0.8l39.7 34.4h-29.4l-39.7-34.4h-13.7v-19h43.1q3.5-0.3 6.5-1.5 3-1.2 5.1-3.3 2.2-2 3.4-4.9 1.1-2.9 1.1-6.7v-12q0-1.6-0.4-2.4-0.4-0.9-1-1.2-0.6-0.5-1.3-0.6-0.7 0-1.3 0h-62.8v86h-19.1v-95.5q0-2 0.8-3.7 0.7-1.8 1.9-3.1 1.4-1.3 3.1-2 1.8-0.8 3.8-0.8h72.3q6.4 0 10.8 2.4 4.4 2.2 7.1 5.8 2.8 3.4 3.9 7.4 1.3 4.1 1.3 7.6zm113.2-23.2v19.1h-42v86h-19v-86h-42v-19.1zm100.3 42.9v19.2h-60.1v-19.2zm8.5 43.1v19.1h-68.7q-3.9 0-8.6-1.4-4.7-1.4-8.7-4.6-4-3.2-6.7-8.2-2.6-5.2-2.6-12.6v-68.7q0-2 0.7-3.7 0.7-1.8 2-3.1 1.3-1.3 3.1-2 1.7-0.8 3.8-0.8h85.7v19.1h-76.3v59.2q0 3.8 2 5.7 2 2 5.8 2zm34.3-86l32 37.5 32.1-37.5h26l-45.2 52.7 44.9 52.4h-25.8l-32-37.2-31.7 37.2h-26l44.9-52.4-45-52.7z"/>
			</g>
		</g>
	</g>
</svg>